<svg xmlns="http://www.w3.org/2000/svg" xmlns:xlink="http://www.w3.org/1999/xlink" width="200" height="195.122" viewBox="0 0 200 195.122">
  <defs>
    <clipPath id="clip-path">
      <rect id="사각형_51673" data-name="사각형 51673" width="116.02" height="160.866" fill="none" stroke="#707070" stroke-width="5"/>
    </clipPath>
  </defs>
  <g id="그룹_28945" data-name="그룹 28945" transform="translate(0.253 0)">
    <rect id="사각형_50291" data-name="사각형 50291" width="200" height="195.122" transform="translate(-0.253 0)" fill="none"/>
    <g id="그룹_32552" data-name="그룹 32552" transform="translate(41.737 17.128)">
      <g id="그룹_32551" data-name="그룹 32551" transform="translate(0 0)" clip-path="url(#clip-path)">
        <rect id="사각형_51671" data-name="사각형 51671" width="56.121" height="13.954" rx="2.815" transform="translate(16.573 6.13)" fill="none" stroke="#707070" stroke-linecap="round" stroke-linejoin="round" stroke-width="5"/>
        <path id="패스_37019" data-name="패스 37019" d="M24.22,37.11H14.856a1.933,1.933,0,0,1-1.765-2.066V28.8a1.934,1.934,0,0,1,1.765-2.067H24.22" transform="translate(8.496 11.654)" fill="none" stroke="#707070" stroke-linecap="round" stroke-linejoin="round" stroke-width="5"/>
        <rect id="사각형_51672" data-name="사각형 51672" width="22.733" height="25.581" rx="1.252" transform="translate(33.385 30.782)" fill="none" stroke="#707070" stroke-linecap="round" stroke-linejoin="round" stroke-width="5"/>
        <path id="패스_37020" data-name="패스 37020" d="M19.181,61.1V51.451a4.108,4.108,0,0,1,4.144-4.07H45.11a4.108,4.108,0,0,1,4.144,4.07V61.1" transform="translate(10.179 16.889)" fill="none" stroke="#707070" stroke-linecap="round" stroke-linejoin="round" stroke-width="5"/>
        <path id="패스_37021" data-name="패스 37021" d="M77.248,135.07V87.164c0-15.927-13.146-28.837-29.363-28.837H30.363C14.146,58.327,1,71.237,1,87.164V135.07" transform="translate(5.154 19.664)" fill="none" stroke="#707070" stroke-linecap="round" stroke-linejoin="round" stroke-width="5"/>
        <line id="선_1936" data-name="선 1936" y2="10.697" transform="translate(38.201 20.084)" fill="none" stroke="#707070" stroke-linecap="round" stroke-linejoin="round" stroke-width="5"/>
        <line id="선_1937" data-name="선 1937" y2="10.697" transform="translate(50.909 20.084)" fill="none" stroke="#707070" stroke-linecap="round" stroke-linejoin="round" stroke-width="5"/>
        <line id="선_1938" data-name="선 1938" y2="7.442" transform="translate(38.201 56.363)" fill="none" stroke="#707070" stroke-linecap="round" stroke-linejoin="round" stroke-width="5"/>
        <line id="선_1939" data-name="선 1939" y2="7.442" transform="translate(50.909 56.363)" fill="none" stroke="#707070" stroke-linecap="round" stroke-linejoin="round" stroke-width="5"/>
        <line id="선_1940" data-name="선 1940" x2="12.757" transform="translate(56.118 38.725)" fill="none" stroke="#707070" stroke-linecap="round" stroke-linejoin="round" stroke-width="5"/>
        <line id="선_1941" data-name="선 1941" x2="12.757" transform="translate(56.118 48.027)" fill="none" stroke="#707070" stroke-linecap="round" stroke-linejoin="round" stroke-width="5"/>
        <path id="패스_37022" data-name="패스 37022" d="M19.449,67.418s-4.268,3.124-6.078,5.814-3.156,7.907-3.156,7.907" transform="translate(7.701 21.969)" fill="none" stroke="#707070" stroke-linecap="round" stroke-linejoin="round" stroke-width="5"/>
        <line id="선_1942" data-name="선 1942" y2="41.861" transform="translate(17.915 112.874)" fill="none" stroke="#707070" stroke-linecap="round" stroke-linejoin="round" stroke-width="5"/>
        <path id="패스_37023" data-name="패스 37023" d="M91.131,34.94a20.5,20.5,0,0,1-40.99,0,20.5,20.5,0,0,1,40.99,0Z" transform="translate(18.735 8.633)" fill="none" stroke="#707070" stroke-linecap="round" stroke-linejoin="round" stroke-width="5"/>
        <line id="선_1943" data-name="선 1943" y1="9.74" x2="5.399" transform="translate(89.371 33.207)" fill="none" stroke="#707070" stroke-linecap="round" stroke-linejoin="round" stroke-width="5"/>
        <line id="선_1944" data-name="선 1944" x2="3.857" transform="translate(106.009 43.572)" fill="none" stroke="#707070" stroke-linecap="round" stroke-linejoin="round" stroke-width="5"/>
        <line id="선_1945" data-name="선 1945" y2="3.788" transform="translate(89.371 59.913)" fill="none" stroke="#707070" stroke-linecap="round" stroke-linejoin="round" stroke-width="5"/>
        <line id="선_1946" data-name="선 1946" y2="3.788" transform="translate(89.371 23.539)" fill="none" stroke="#707070" stroke-linecap="round" stroke-linejoin="round" stroke-width="5"/>
        <line id="선_1947" data-name="선 1947" x2="3.857" transform="translate(68.837 43.572)" fill="none" stroke="#707070" stroke-linecap="round" stroke-linejoin="round" stroke-width="5"/>
      </g>
    </g>
  </g>
</svg>
